<svg xmlns="http://www.w3.org/2000/svg" width="20" height="20" viewBox="0 0 20 20">
    <path fill-rule="nonzero" d="M7.862 11.918a6.75 6.75 0 0 1 6.746 6.513l.004.237h-1.5a5.25 5.25 0 0 0-10.496-.216l-.004.216h-1.5a6.75 6.75 0 0 1 6.75-6.75zM18.5 14.25a.75.75 0 0 1 .102 1.493l-.102.007h-3a.75.75 0 0 1-.102-1.493l.102-.007h3zm0-4a.75.75 0 0 1 .102 1.493l-.102.007h-5.062a.75.75 0 0 1-.101-1.493l.101-.007H18.5zM7.862 2a4.5 4.5 0 1 1 0 9 4.5 4.5 0 0 1 0-9zm0 1.5a3 3 0 1 0 0 6 3 3 0 0 0 0-6zM18.5 6.25a.75.75 0 0 1 .102 1.493l-.102.007h-3a.75.75 0 0 1-.102-1.493l.102-.007h3z"/>
</svg>
