<svg xmlns="http://www.w3.org/2000/svg" width="24" height="24" viewBox="0 0 24 24">
    <g fill-rule="nonzero">
        <path d="M12.028 5.25c2.88 0 4.289 2.566 3.544 4.832-.267.813-.688 1.407-1.313 1.972l-.194.17c-.15.127-.616.495-.668.537-.4.329-.547.525-.573.784l-.004.089.004.357a.75.75 0 0 1-1.492.12l-.008-.102-.004-.367c0-.792.314-1.33.957-1.897l.168-.143c.06-.05.417-.332.591-.474l.062-.05c.537-.454.853-.868 1.049-1.465.452-1.374-.365-2.863-2.119-2.863-.905 0-1.509.277-1.913.734a1.85 1.85 0 0 0-.366.596l-.019.066A.75.75 0 0 1 8.27 7.8c.084-.357.301-.836.721-1.311.687-.777 1.7-1.24 3.037-1.24zM13 17a1 1 0 1 1-2 0 1 1 0 0 1 2 0"/>
        <path d="M21.767 1.5H2.233a.733.733 0 0 0-.733.733v19.534c0 .405.328.733.733.733h19.534a.733.733 0 0 0 .733-.733V2.233a.733.733 0 0 0-.733-.733zm-.732 1.465v18.07H2.965V2.965h18.07z"/>
    </g>
</svg>
