<svg xmlns="http://www.w3.org/2000/svg" width="24" height="24" viewBox="0 0 24 24">
    <path fill-rule="nonzero" d="M4.365 21.229h3.271v-6.517c0-.599.488-1.083 1.088-1.083h6.552c.6 0 1.088.484 1.088 1.083v6.52l3.272.001v-10.41L12 3.23l-7.636 7.593V21.23zM1.862 13.31a1.095 1.095 0 0 1-1.542 0 1.082 1.082 0 0 1 0-1.536L11.229.918a1.095 1.095 0 0 1 1.542 0l10.91 10.857a1.082 1.082 0 0 1 0 1.536 1.095 1.095 0 0 1-1.543 0l-.32-.318v8.24a2.172 2.172 0 0 1-2.183 2.167H4.365a2.174 2.174 0 0 1-2.183-2.167v-8.24l-.32.318zm12.32 7.92v-5.433l-4.364.002v5.43h4.364z"/>
</svg>
