<svg xmlns="http://www.w3.org/2000/svg" width="24" height="24" viewBox="0 0 24 24">
    <path fill-rule="nonzero" d="M12 1l8.217 1.826a1 1 0 0 1 .783.976v9.987a6 6 0 0 1-2.672 4.992L12 23l-6.328-4.219A6 6 0 0 1 3 13.79V3.802a1 1 0 0 1 .783-.976L12 1zm0 13.934a4.752 4.752 0 0 0-4.323 2.781L12 20.597l4.323-2.882A4.752 4.752 0 0 0 12 14.935zM12 3.05L5 4.604v9.185a4 4 0 0 0 1.052 2.704 6.755 6.755 0 0 1 2.892-2.828 4.318 4.318 0 1 1 6.113.001 6.752 6.752 0 0 1 2.891 2.826A3.998 3.998 0 0 0 19 13.79V4.604L12 3.05zm0 5.248a2.318 2.318 0 1 0 0 4.636 2.318 2.318 0 0 0 0-4.636z"/>
</svg>
