<svg xmlns="http://www.w3.org/2000/svg" width="20" height="20" viewBox="0 0 20 20">
    <path fill-rule="nonzero" d="M17.005 1.25a.75.75 0 0 1 .744.648l.006.102v16a.75.75 0 0 1-.648.743l-.102.007h-12a.75.75 0 0 1-.743-.646l-.007-.102-.005-2a.75.75 0 0 1 1.493-.106l.007.102.003 1.252h10.502V2.75H5.753L5.75 4.002a.75.75 0 0 1-.65.741l-.102.007a.75.75 0 0 1-.741-.65l-.007-.102.005-2a.75.75 0 0 1 .649-.741l.101-.007h12zM5.012 6.43l.976 1.14-1.962 1.68h6.98v1.5H4.026l1.961 1.68-.976 1.14-3.5-3a.75.75 0 0 1-.08-1.06l.08-.08 3.5-3z"/>
</svg>
