<svg xmlns="http://www.w3.org/2000/svg" width="32" height="33" viewBox="0 0 32 33">
    <g fill="none" fill-rule="evenodd">
        <path d="M0 .25h32v32H0z"/>
        <path fill="#FFF" d="M24.636 21.75c.753 0 1.364.672 1.364 1.5s-.61 1.5-1.364 1.5H7.364C6.61 24.75 6 24.078 6 23.25s.61-1.5 1.364-1.5h17.272zm0-7c.753 0 1.364.672 1.364 1.5s-.61 1.5-1.364 1.5H7.364C6.61 17.75 6 17.078 6 16.25s.61-1.5 1.364-1.5h17.272zm0-7c.753 0 1.364.672 1.364 1.5s-.61 1.5-1.364 1.5H7.364C6.61 10.75 6 10.078 6 9.25s.61-1.5 1.364-1.5h17.272z"/>
    </g>
</svg>
