<svg xmlns="http://www.w3.org/2000/svg" width="24" height="24" viewBox="0 0 24 24">
    <path fill-rule="nonzero" d="M3.818 8.33l7.273 3.324v8.826a.357.357 0 0 0 .09.251l-7.363-3.738V8.33zm16.364 0v8.663l-7.364 3.738c.091-.099.091-.205.091-.317v-8.76l7.273-3.324zM12 2.834l7.455 3.81L12 10.056 4.545 6.643 12 2.833zM3 5.37c-.636.311-1 .944-1 1.636v9.986c0 .692.364 1.325 1 1.636l8.182 4.174c.545.263 1.09.263 1.636 0L21 18.629c.636-.311 1-.944 1-1.636V7.007c0-.692-.364-1.325-1-1.636l-8.182-4.174a1.795 1.795 0 0 0-1.636 0L3 5.371z"/>
</svg>
