<svg xmlns="http://www.w3.org/2000/svg" width="24" height="24" viewBox="0 0 24 24">
    <path fill-rule="nonzero" d="M10.077 12.535l3.078 5.33-3.078 5.33H3.923l-3.078-5.33 3.078-5.33h6.154zm-1.153 2H5.078l-1.922 3.33 1.922 3.33h3.846l1.922-3.33-1.922-3.33zm11.153-7.73l3.078 5.33-3.078 5.33h-6.154l-3.078-5.33 3.078-5.33h6.154zm-1.154 1.998h-3.846l-1.922 3.331 1.922 3.33h3.846l1.922-3.33-1.922-3.33zM10.077.804l3.078 5.33-3.078 5.33H3.923L.845 6.135 3.923.804h6.154zm-1.154 2H5.077l-1.922 3.33 1.922 3.33h3.846l1.922-3.33-1.922-3.33z"/>
</svg>
