<svg xmlns="http://www.w3.org/2000/svg" width="36" height="36" viewBox="0 0 36 36">
    <path fill-rule="nonzero" d="M10.782 5.025l.102.091 5 5-1.768 1.768-2.867-2.868.001 4.99.004.228C11.38 17.706 14.343 20.5 18 20.5c3.737 0 6.75-2.916 6.75-6.493V9.016l-2.866 2.868-1.768-1.768 5-5a1.25 1.25 0 0 1 1.666-.091l.102.091 5 5-1.768 1.768-2.867-2.868.001 4.99-.004.262c-.13 4.445-3.573 8.071-8 8.651l.004.081v7a1.25 1.25 0 0 1-2.494.128L16.75 30v-7l.004-.081c-4.513-.591-8.004-4.349-8.004-8.912V9.016l-2.866 2.868-1.768-1.768 5-5a1.25 1.25 0 0 1 1.666-.091z"/>
</svg>
