<svg xmlns="http://www.w3.org/2000/svg" width="24" height="24" viewBox="0 0 24 24">
    <g fill-rule="nonzero">
        <path d="M13.295 23c-.423.002-.767-.322-.77-.724 0-.368.286-.674.66-.723l.103-.008 8.268-.035c.067 0 .13-.048.153-.12l.009-.06V8.635a.178.178 0 0 0-.113-.17l-.05-.01h-9.284c-.424 0-.767-.325-.767-.727 0-.368.289-.672.663-.72L12.27 7h9.285c.891 0 1.614.66 1.688 1.494l.006.14v12.697c0 .85-.676 1.556-1.544 1.628l-.147.006-8.264.035z"/>
        <path d="M10.473 1a1 1 0 0 1 .974.773l3.267 14A1 1 0 0 1 13.74 17H2a1 1 0 0 1-1-1V2a1 1 0 0 1 1-1h8.473zm-.397 1.5H2.5v13h10.609l-3.033-13z"/>
        <path d="M8.576 15.52l3.953 4.743.731-4.386 1.48.246-1 6a.75.75 0 0 1-1.24.437l-.076-.08-5-6 1.152-.96zM8.177 5L11 12H9.498l-.555-1.4H6.057L5.5 12H4l2.823-7h1.354zM7.5 6.96L6.612 9.2h1.776L7.5 6.96z"/>
        <path d="M17.743 11v1.027h3.09v1.5h-1.436c-.158.876-.59 1.784-1.29 2.73.622.683 1.407 1.406 2.358 2.169l-.938 1.17-.307-.25a22.018 22.018 0 0 1-2.086-1.93 21.98 21.98 0 0 1-2.087 1.93l-.307.25-.938-1.17c.952-.763 1.737-1.487 2.36-2.17-.702-.945-1.133-1.853-1.292-2.729h-1.537v-1.5h2.91V11h1.5zm.117 2.527h-1.453c.127.47.368.973.726 1.507.36-.534.6-1.038.727-1.507z"/>
    </g>
</svg>
