<svg xmlns="http://www.w3.org/2000/svg" width="128" height="24" viewBox="0 0 128 24">
    <path fill-rule="nonzero" d="M46.544 10.86h1.633c1.602 0 2.782-.264 3.545-.794.762-.526 1.142-1.356 1.142-2.488 0-1.12-.388-1.917-1.167-2.391s-1.984-.712-3.617-.712h-1.536V10.86zm0 4.073V24H41.48V.372h6.958c3.244 0 5.643.584 7.203 1.752 1.556 1.17 2.334 2.944 2.334 5.326 0 1.39-.386 2.626-1.159 3.708-.773 1.083-1.867 1.933-3.283 2.546 3.595 5.312 5.934 8.743 7.024 10.296h-5.62l-5.7-9.067h-2.694zM128 24h-5.046V13.801h-9.457V24h-5.062V.372h5.062v9.26h9.457V.371H128v23.627zM.311.372v4.135h11.137L0 20.751v3.248h17.768v-4.137H6.026l11.432-16.26V.373H.31zm22.438 0v23.627h13.752v-4.137h-8.688v-6.093h8.083V9.665h-8.083V4.476H36.5V.372H22.749zm75.27 23.627h-5.062V4.541h-6.484V.37h18.03v4.17H98.02v19.458zm-14.31-5.002c.694-2.261.923-4.06.923-6.511 0-4.03-.998-7.117-2.994-9.267C79.641 1.073 76.758 0 72.988 0c-3.768 0-6.664 1.065-8.683 3.195-2.018 2.132-3.029 5.216-3.029 9.258 0 4.04.794 7.356 3.022 9.297 2.374 2.07 6.22 2.463 8.656 1.307 2.65-1.258 3.009-2.687 3.009-2.687-.495.02-1.305.291-2.554.284-2.069-.01-4.078-.668-5.118-2.041-1.042-1.373-1.561-3.415-1.561-6.127 0-2.713.526-4.758 1.577-6.136 1.051-1.378 2.612-2.067 4.68-2.067 4.129 0 6.384 2.886 6.192 8.203-.633 8.687.894 10.246 4.528 11.334 0 0-.938-1.765 0-4.823"/>
</svg>
